HIERARCHY
ROOT hip
{
  OFFSET 0 0 0
  CHANNELS 6 Xposition Yposition Zposition Zrotation Yrotation Xrotation
  JOINT abdomen
  {
    OFFSET 0 20.6881 -0.73152
    CHANNELS 3 Zrotation Xrotation Yrotation
    JOINT chest
    {
      OFFSET 0 11.7043 -0.48768
      CHANNELS 3 Zrotation Xrotation Yrotation
      JOINT neck
      {
        OFFSET 0 22.1894 -2.19456
        CHANNELS 3 Zrotation Xrotation Yrotation
        JOINT head
        {
          OFFSET -0.24384 7.07133 1.2192
          CHANNELS 3 Zrotation Xrotation Yrotation
          JOINT leftEye
          {
            OFFSET 4.14528 8.04674 8.04672
            CHANNELS 3 Zrotation Xrotation Yrotation
            End Site
            {
              OFFSET 1 0 0
            }
          }
          JOINT rightEye
          {
            OFFSET -3.6576 8.04674 8.04672
            CHANNELS 3 Zrotation Xrotation Yrotation
            End Site
            {
              OFFSET 1 0 0
            }
          }
        }
      }
      JOINT rCollar
      {
        OFFSET -2.68224 19.2634 -4.8768
        CHANNELS 3 Zrotation Xrotation Yrotation
        JOINT rShldr
        {
          OFFSET -8.77824 -1.95073 1.46304
          CHANNELS 3 Zrotation Xrotation Yrotation
          JOINT rForeArm
          {
            OFFSET -28.1742 -1.7115 0.48768
            CHANNELS 3 Zrotation Xrotation Yrotation
            JOINT rHand
            {
              OFFSET -22.5879 0.773209 7.07136
              CHANNELS 3 Zrotation Xrotation Yrotation
              JOINT rThumb1
              {
                OFFSET -1.2192 -0.487915 3.41376
                CHANNELS 3 Zrotation Xrotation Yrotation
                JOINT rThumb2
                {
                  OFFSET -3.37035 -0.52449 3.41376
                  CHANNELS 3 Zrotation Xrotation Yrotation
                  End Site
                  {
                    OFFSET -1.78271 -1.18214 1.43049
                  }
                }
              }
              JOINT rIndex1
              {
                OFFSET -7.75947 0.938293 5.60832
                CHANNELS 3 Zrotation Xrotation Yrotation
                JOINT rIndex2
                {
                  OFFSET -2.54057 -0.884171 1.56538
                  CHANNELS 3 Zrotation Xrotation Yrotation
                  End Site
                  {
                    OFFSET -1.62519 -0.234802 1.16502
                  }
                }
              }
              JOINT rMid1
              {
                OFFSET -8.24714 1.18213 3.41376
                CHANNELS 3 Zrotation Xrotation Yrotation
                JOINT rMid2
                {
                  OFFSET -3.10165 -0.590103 1.0647
                  CHANNELS 3 Zrotation Xrotation Yrotation
                  End Site
                  {
                    OFFSET -2.48547 -0.328903 0.83742
                  }
                }
              }
              JOINT rRing1
              {
                OFFSET -8.82822 0.546677 1.51678
                CHANNELS 3 Zrotation Xrotation Yrotation
                JOINT rRing2
                {
                  OFFSET -2.60934 -0.819778 -0.0198488
                  CHANNELS 3 Zrotation Xrotation Yrotation
                  End Site
                  {
                    OFFSET -2.33842 -0.294052 0.168128
                  }
                }
              }
              JOINT rPinky1
              {
                OFFSET -8.27202 -0.0477905 -0.4584
                CHANNELS 3 Zrotation Xrotation Yrotation
                JOINT rPinky2
                {
                  OFFSET -1.82734 -0.647385 -0.700984
                  CHANNELS 3 Zrotation Xrotation Yrotation
                  End Site
                  {
                    OFFSET -1.69225 -0.51767 -0.607171
                  }
                }
              }
            }
          }
        }
      }
      JOINT lCollar
      {
        OFFSET 2.68224 19.2634 -4.8768
        CHANNELS 3 Zrotation Xrotation Yrotation
        JOINT lShldr
        {
          OFFSET 8.77824 -1.95073 1.46304
          CHANNELS 3 Zrotation Xrotation Yrotation
          JOINT lForeArm
          {
            OFFSET 28.1742 -1.7115 0.48768
            CHANNELS 3 Zrotation Xrotation Yrotation
            JOINT lHand
            {
              OFFSET 22.5879 0.773209 7.07136
              CHANNELS 3 Zrotation Xrotation Yrotation
              JOINT lThumb1
              {
                OFFSET 1.2192 -0.487915 3.41376
                CHANNELS 3 Zrotation Xrotation Yrotation
                JOINT lThumb2
                {
                  OFFSET 3.37035 -0.52449 3.41376
                  CHANNELS 3 Zrotation Xrotation Yrotation
                  End Site
                  {
                    OFFSET 1.78271 -1.18214 1.43049
                  }
                }
              }
              JOINT lIndex1
              {
                OFFSET 7.75947 0.938293 5.60832
                CHANNELS 3 Zrotation Xrotation Yrotation
                JOINT lIndex2
                {
                  OFFSET 2.54057 -0.884171 1.56538
                  CHANNELS 3 Zrotation Xrotation Yrotation
                  End Site
                  {
                    OFFSET 1.62519 -0.234802 1.16502
                  }
                }
              }
              JOINT lMid1
              {
                OFFSET 8.24714 1.18213 3.41376
                CHANNELS 3 Zrotation Xrotation Yrotation
                JOINT lMid2
                {
                  OFFSET 3.10165 -0.590103 1.0647
                  CHANNELS 3 Zrotation Xrotation Yrotation
                  End Site
                  {
                    OFFSET 2.48547 -0.328903 0.83742
                  }
                }
              }
              JOINT lRing1
              {
                OFFSET 8.82822 0.546677 1.51678
                CHANNELS 3 Zrotation Xrotation Yrotation
                JOINT lRing2
                {
                  OFFSET 2.60934 -0.819778 -0.0198488
                  CHANNELS 3 Zrotation Xrotation Yrotation
                  End Site
                  {
                    OFFSET 2.33842 -0.294052 0.168128
                  }
                }
              }
              JOINT lPinky1
              {
                OFFSET 8.27202 -0.0477905 -0.4584
                CHANNELS 3 Zrotation Xrotation Yrotation
                JOINT lPinky2
                {
                  OFFSET 1.82734 -0.647385 -0.700984
                  CHANNELS 3 Zrotation Xrotation Yrotation
                  End Site
                  {
                    OFFSET 1.69225 -0.51767 -0.607171
                  }
                }
              }
            }
          }
        }
      }
    }
  }
  JOINT rButtock
  {
    OFFSET -8.77824 4.35084 1.2192
    CHANNELS 3 Zrotation Xrotation Yrotation
    JOINT rThigh
    {
      OFFSET 0 -1.70687 -2.19456
      CHANNELS 3 Zrotation Xrotation Yrotation
      JOINT rShin
      {
        OFFSET 0 -36.8199 0.73152
        CHANNELS 3 Zrotation Xrotation Yrotation
        JOINT rFoot
        {
          OFFSET 0.73152 -45.1104 -5.12064
          CHANNELS 3 Zrotation Xrotation Yrotation
          End Site
          {
            OFFSET -1.1221 -3.69964 12.103
          }
        }
      }
    }
  }
  JOINT lButtock
  {
    OFFSET 8.77824 4.35084 1.2192
    CHANNELS 3 Zrotation Xrotation Yrotation
    JOINT lThigh
    {
      OFFSET 0 -1.70687 -2.19456
      CHANNELS 3 Zrotation Xrotation Yrotation
      JOINT lShin
      {
        OFFSET 0 -36.8199 0.73152
        CHANNELS 3 Zrotation Xrotation Yrotation
        JOINT lFoot
        {
          OFFSET -0.73152 -45.1104 -5.12064
          CHANNELS 3 Zrotation Xrotation Yrotation
          End Site
          {
            OFFSET 1.1221 -3.69964 12.103
          }
        }
      }
    }
  }
}
MOTION
Frames:	10
Frame Time:	0.00833333
0.0 0.0 0.0 0.0 0.0 0.0 0.0 0.0 0.0 0.0 0.0 0.0 0.0 0.0 0.0 0.0 0.0 0.0 0.0 0.0 0.0 0.0 0.0 0.0 0.0 0.0 0.0 0.0 0.0 0.0 0.0 0.0 0.0 0.0 0.0 0.0 0.0 0.0 0.0 0.0 0.0 0.0 0.0 0.0 0.0 0.0 0.0 0.0 0.0 0.0 0.0 0.0 0.0 0.0 0.0 0.0 0.0 0.0 0.0 0.0 0.0 0.0 0.0 0.0 0.0 0.0 0.0 0.0 0.0 0.0 0.0 0.0 0.0 0.0 0.0 0.0 0.0 0.0 0.0 0.0 0.0 0.0 0.0 0.0 0.0 0.0 0.0 0.0 0.0 0.0 0.0 0.0 0.0 0.0 0.0 0.0 0.0 0.0 0.0 0.0 0.0 0.0 0.0 0.0 0.0 0.0 0.0 0.0 0.0 0.0 0.0 0.0 0.0 0.0 0.0 0.0 0.0 0.0 0.0 0.0 0.0 0.0 0.0 0.0 0.0 0.0 0.0 0.0 0.0 0.0 0.0 0.0
-75.3551 84.4941 6.83081 -0.0 -0.0 -0.0 -0.0 -4.771896 -180.0 0.0 -4.771896 -180.0 -8.133567 10.422116 -81.502261 11.496437 6.51512 81.58876 0.0 -0.0 -0.0 0.0 -0.0 -0.0 -80.1661 68.371792 83.260848 -74.088902 86.559311 93.605397 -176.961126 11.198437 178.92411 -4.241115 13.475368 0.037811 6.463714 -6.452652 -0.634888 -116.928105 -0.358569 105.807288 -108.427673 34.160977 91.742903 8.227355 5.012086 -14.991201 -160.341084 -5.644399 143.087209 -168.410837 -29.776047 143.895473 0.005183 1.20217 0.377639 -165.799334 -0.544879 172.071115 0.098846 0.258289 0.091255 17.125989 58.791379 9.549272 9.651699 34.836178 -11.199233 13.947974 -74.820692 25.030574 -178.187819 -29.115562 -142.061999 -173.365402 -8.524088 -144.738547 179.373341 -16.877168 -89.359733 122.556459 17.134195 -59.297673 108.427673 34.160977 -91.742903 168.561288 -34.962405 -124.857917 0.969343 2.779591 -0.553338 58.039317 62.254478 -48.090642 132.481743 54.102976 -155.533585 158.19574 24.527238 174.696926 1.203484 -3.047547 1.116064 130.98057 -29.563231 126.975663 -0.0 0.0 -0.0 -0.0 -0.0 -0.0 -2.721753 1.041334 -25.607042 -58.481504 -28.233569 31.209048 -0.0 0.0 -0.0 -0.0 -0.0 -0.0 2.721753 1.041334 25.607042 58.481504 -28.233569 -31.209048
-75.3457 84.5384 6.6375 -0.0 0.0 -0.0 -0.0 -4.771896 -180.0 0.0 -4.771896 -180.0 12.037091 11.003981 107.450631 -6.863102 14.769388 -107.723792 -0.0 -0.0 0.0 -0.0 -0.0 0.0 -159.220516 -48.028485 170.415257 -129.108159 52.177169 136.516976 179.305673 -5.586499 144.102757 173.279446 -8.787349 144.716573 11.110121 -11.092107 -0.639674 -43.729203 30.851032 34.093429 -90.225558 41.072425 75.796697 -171.109624 -32.260158 124.09458 -36.036059 51.723116 29.832321 -5.222501 21.578902 1.632673 -145.119466 0.267775 -179.212461 22.2631 29.142502 -5.755414 12.632866 42.933991 10.532639 -0.497372 -0.788159 -2.359982 159.220516 -48.028485 -170.415257 129.108159 52.177169 -136.516976 178.421015 1.266199 -144.424749 -170.966071 -15.643643 -143.990006 93.743665 37.963835 -53.548561 117.644503 -13.554448 -73.44599 -159.641557 -69.973343 -102.396332 -8.936322 16.722032 -4.398787 36.036059 51.723116 -29.832321 12.169929 36.026122 -6.986734 0.000142 -0.018512 0.005816 166.779888 -22.607599 -174.425312 137.37807 -8.61869 134.657906 -5.27292 0.447811 0.725332 -0.0 0.0 -0.0 -0.0 -0.0 -0.0 7.081855 4.181059 77.332942 -38.390708 -74.728741 -133.183286 -0.0 0.0 -0.0 -0.0 -0.0 -0.0 -7.081855 4.181059 -77.332942 38.390708 -74.728741 133.183286
-75.34 84.5873 6.46487 -0.0 0.0 -0.0 -0.0 -4.771896 -180.0 0.0 -4.771896 -180.0 12.037091 11.003981 107.450631 -6.863102 14.769388 -107.723792 -0.0 -0.0 0.0 -0.0 -0.0 0.0 -159.220516 -48.028485 170.415257 -129.108159 52.177169 136.516976 179.305673 -5.586499 144.102757 173.279446 -8.787349 144.716573 -170.214139 -7.897134 89.94387 112.408894 -62.005529 82.693629 -1.564766 2.494907 0.906783 -10.136288 13.272153 2.589649 -36.036059 51.723116 29.832321 -1.555913 11.380981 -0.768452 -0.021291 -1.725169 -0.542387 1.271646 -52.96257 -6.280477 5.663198 16.872151 5.087837 -162.18251 52.108111 -148.58774 159.220516 -48.028485 -170.415257 129.108159 52.177169 -136.516976 178.421015 1.266199 -144.424749 -170.966071 -15.643643 -143.990006 5.433768 5.264911 -1.077842 137.438557 -40.748702 -115.78202 46.208543 39.652969 -36.318179 0.122856 3.628757 10.151441 153.32078 13.628946 -138.862343 4.277378 27.285684 -5.435808 0.000473 -0.060845 0.019116 73.361527 -86.900361 84.595762 152.200278 37.330087 147.582714 24.945854 -39.911576 28.340866 -0.0 0.0 -0.0 -0.0 -0.0 -0.0 7.081855 4.181059 77.332942 -131.790123 -69.60711 128.119608 -0.0 0.0 -0.0 -0.0 -0.0 -0.0 -7.081855 4.181059 -77.332942 131.790123 -69.60711 -128.119608
-75.3372 84.632 6.29608 -0.0 0.0 -0.0 -0.0 -4.771896 -180.0 0.0 -4.771896 -180.0 12.037091 11.003981 107.450631 -6.863102 14.769388 -107.723792 -0.0 -0.0 0.0 -0.0 -0.0 0.0 -159.220516 -48.028485 170.415257 -129.108159 52.177169 136.516976 179.305673 -5.586499 144.102757 173.279446 -8.787349 144.716573 11.110121 -11.092107 -0.639674 -43.729203 30.851032 34.093429 -90.225558 41.072425 75.796697 -171.109624 -32.260158 124.09458 -36.036059 51.723116 29.832321 -5.222501 21.578902 1.632673 -145.119466 0.267775 -179.212461 22.2631 29.142502 -5.755414 12.632866 42.933991 10.532639 -0.497372 -0.788159 -2.359982 159.220516 -48.028485 -170.415257 129.108159 52.177169 -136.516976 178.421015 1.266199 -144.424749 -170.966071 -15.643643 -143.990006 93.743665 37.963835 -53.548561 117.644503 -13.554448 -73.44599 -159.641557 -69.973343 -102.396332 -8.936322 16.722032 -4.398787 36.036059 51.723116 -29.832321 12.169929 36.026122 -6.986734 0.000142 -0.018512 0.005816 166.779888 -22.607599 -174.425312 137.37807 -8.61869 134.657906 -5.27292 0.447811 0.725332 -0.0 0.0 -0.0 -0.0 -0.0 -0.0 7.081855 4.181059 77.332942 -151.579957 -27.88746 98.276681 -0.0 0.0 -0.0 -0.0 -0.0 -0.0 -7.081855 4.181059 -77.332942 151.579957 -27.88746 -98.276681
-75.3789 84.8012 6.490800000000001 -0.0 0.0 -0.0 -0.0 -4.771896 -180.0 -0.0 -4.771896 -180.0 -8.144544 9.765136 -77.762661 11.253376 5.904095 77.877376 0.0 -0.0 -0.0 0.0 -0.0 -0.0 -85.537448 68.182427 88.688908 5.843373 75.512119 13.59165 -88.09946 -75.640643 -109.849742 49.498461 -65.870418 36.106583 -171.706035 -9.388422 89.948992 -128.147412 12.440404 62.305257 -19.170572 24.114561 13.380841 -65.56211 52.197245 39.181397 -36.036059 51.723116 29.832321 -10.982117 33.95062 6.018006 -0.021306 -1.72602 -0.542654 -163.351005 20.584763 168.434507 9.96654 32.461829 8.6263 -157.925682 36.591989 -146.385673 155.460052 -3.227798 -161.777534 -23.198038 -15.362493 -15.83025 178.770001 -0.091507 -178.864149 5.962116 18.699821 -0.336095 -114.538671 -50.245352 -55.721798 46.316499 13.023458 -0.858693 12.271906 17.023381 -8.102233 93.767009 51.238679 -63.576064 160.673322 -6.667841 -143.245105 -5.881812 1.676942 -0.517859 0.000473 -0.060845 0.019116 -0.059542 -0.767618 0.084695 145.173549 12.06758 141.82295 19.190769 -37.176416 23.231324 -0.0 0.0 -0.0 -0.0 -0.0 -0.0 7.081855 4.181059 77.332942 -38.390708 -74.728741 -133.183286 -0.0 0.0 -0.0 -0.0 -0.0 -0.0 -7.081855 4.181059 -77.332942 38.390708 -74.728741 133.183286
-75.4139 84.9145 6.475630000000001 -0.0 0.0 -0.0 -0.0 -4.771896 -180.0 -0.0 -4.771896 -180.0 -8.144544 9.765136 -77.762661 11.253376 5.904095 77.877376 0.0 -0.0 -0.0 0.0 -0.0 -0.0 -85.537448 68.182427 88.688908 5.843373 75.512119 13.59165 -88.09946 -75.640643 -109.849742 49.498461 -65.870418 36.106583 71.831195 -48.263725 25.791675 -160.685765 -56.714908 139.929763 -19.170572 24.114561 13.380841 -70.771683 52.924494 43.700498 -160.09819 -4.901163 142.968881 92.64828 -78.276429 60.534955 0.004875 1.770451 0.556181 -6.813554 44.506865 8.340702 0.321363 0.844247 0.29644 -161.9674 55.159712 -149.970566 155.460052 -3.227798 -161.777534 -23.198038 -15.362493 -15.83025 178.770001 -0.091507 -178.864149 5.962116 18.699821 -0.336095 93.743665 37.963835 -53.548561 133.840427 -20.571719 -77.513114 -0.184726 -0.300416 0.104009 10.034996 13.207958 -3.18658 151.476684 17.84174 -137.538824 151.650356 20.005797 -139.91655 145.118942 0.185466 179.186604 -20.549968 -0.078961 9.047368 161.704759 70.564335 151.025746 11.534205 -24.781869 14.996511 -0.0 0.0 -0.0 -0.0 -0.0 -0.0 7.081855 4.181059 77.332942 -151.579957 -27.88746 98.276681 -0.0 0.0 -0.0 -0.0 -0.0 -0.0 -7.081855 4.181059 -77.332942 151.579957 -27.88746 -98.276681
-75.3947 84.9165 6.4426499999999995 -0.0 0.0 -0.0 -0.0 -4.771896 -180.0 0.0 -4.771896 -180.0 10.50515 4.498364 68.886613 -7.991713 8.18131 -68.727902 0.0 0.0 0.0 0.0 0.0 0.0 -155.417258 -2.951435 161.718542 58.728119 -68.140178 38.738891 166.811349 -0.449621 170.453181 -51.23607 69.958412 34.082018 2.012629 -1.996597 -0.274913 -30.361595 24.224434 25.951262 -9.376465 13.535451 6.014134 -6.14984 8.047564 -1.506024 -0.057679 0.167876 0.032027 -166.599371 -5.06083 143.364556 -72.96523 -72.143029 -89.99016 16.870703 -13.092843 4.37207 -8.191002 -17.575975 -7.729117 -130.826561 -29.908237 -127.568195 155.417258 -2.951435 -161.718542 -58.728119 -68.140178 -38.738891 -100.832241 79.516384 129.370953 178.704428 16.465482 -145.046076 -3.024903 -3.006688 0.387008 -20.553499 -36.719438 17.053734 151.679432 -17.764752 -121.237135 23.191448 52.093019 -20.298307 160.673322 -6.667841 -143.245105 10.687817 36.776133 -11.266049 0.014868 -1.323148 0.415899 -1.297451 -21.756571 2.289784 -7.928213 24.811638 -7.002569 163.843008 55.300327 147.957238 -0.0 0.0 -0.0 -0.0 -2.27635 -180.0 -6.880793 -5.921355 -107.859822 -11.465574 25.060334 -64.504817 -0.0 0.0 -0.0 -0.0 -2.27635 -180.0 6.880793 -5.921355 107.859822 11.465574 25.060334 64.504817
-75.3967 84.9166 6.404260000000001 -0.0 0.0 -0.0 -0.0 -4.771896 -180.0 -0.0 -4.771896 -180.0 -8.144544 9.765136 -77.762661 11.253376 5.904095 77.877376 0.0 -0.0 -0.0 0.0 -0.0 -0.0 -85.537448 68.182427 88.688908 5.843373 75.512119 13.59165 -88.09946 -75.640643 -109.849742 49.498461 -65.870418 36.106583 -171.706035 -9.388422 89.948992 -177.168851 -13.752665 93.060479 -19.170572 24.114561 13.380841 -65.56211 52.197245 39.181397 -36.036059 51.723116 29.832321 -17.533012 43.811255 11.543412 -0.000142 -0.018533 -0.005823 1.293402 -33.489672 -3.936075 9.96654 32.461829 8.6263 -173.522923 71.179875 -143.754993 155.460052 -3.227798 -161.777534 -23.198038 -15.362493 -15.83025 178.770001 -0.091507 -178.864149 5.962116 18.699821 -0.336095 -114.538671 -50.245352 -55.721798 46.316499 13.023458 -0.858693 12.271906 17.023381 -8.102233 93.767009 51.238679 -63.576064 160.673322 -6.667841 -143.245105 167.187736 -26.248394 -143.955503 69.297282 72.946551 -87.017042 147.897009 -41.197727 163.258539 145.173549 12.06758 141.82295 19.190769 -37.176416 23.231324 -0.0 0.0 -0.0 -0.0 -2.27635 -180.0 -6.880793 -5.921355 -107.859822 -11.465574 25.060334 -64.504817 -0.0 0.0 -0.0 -0.0 -2.27635 -180.0 6.880793 -5.921355 107.859822 11.465574 25.060334 64.504817
-75.4166 84.9161 6.382060000000001 -0.0 0.0 -0.0 -0.0 -4.771896 -180.0 -0.0 -4.771896 -180.0 -8.144544 9.765136 -77.762661 11.253376 5.904095 77.877376 0.0 -0.0 -0.0 0.0 -0.0 -0.0 -85.537448 68.182427 88.688908 5.843373 75.512119 13.59165 -88.09946 -75.640643 -109.849742 49.498461 -65.870418 36.106583 71.831195 -48.263725 25.791675 -160.685765 -56.714908 139.929763 -19.170572 24.114561 13.380841 -70.771683 52.924494 43.700498 -160.09819 -4.901163 142.968881 92.64828 -78.276429 60.534955 0.004875 1.770451 0.556181 -6.813554 44.506865 8.340702 0.321363 0.844247 0.29644 -161.9674 55.159712 -149.970566 155.460052 -3.227798 -161.777534 -23.198038 -15.362493 -15.83025 178.770001 -0.091507 -178.864149 5.962116 18.699821 -0.336095 93.743665 37.963835 -53.548561 133.840427 -20.571719 -77.513114 -0.184726 -0.300416 0.104009 10.034996 13.207958 -3.18658 151.476684 17.84174 -137.538824 151.650356 20.005797 -139.91655 145.118942 0.185466 179.186604 -20.549968 -0.078961 9.047368 161.704759 70.564335 151.025746 11.534205 -24.781869 14.996511 -0.0 0.0 -0.0 -0.0 -0.0 -0.0 7.081855 4.181059 77.332942 -151.579957 -27.88746 98.276681 -0.0 0.0 -0.0 -0.0 -0.0 -0.0 -7.081855 4.181059 -77.332942 151.579957 -27.88746 -98.276681
